inDegrees=yes
name=ik_S57_A08_T01
DataType=double
version=3
OpenSimVersion=4.3-2021-08-27-4bc7ad9
endheader
time	pelvis_tilt	pelvis_list	pelvis_rotation	pelvis_tx	pelvis_ty	pelvis_tz	hip_flexion_r	hip_adduction_r	hip_rotation_r	knee_angle_r	knee_angle_r_beta	ankle_angle_r	subtalar_angle_r	mtp_angle_r	hip_flexion_l	hip_adduction_l	hip_rotation_l	knee_angle_l	knee_angle_l_beta	ankle_angle_l	subtalar_angle_l	mtp_angle_l	lumbar_extension	lumbar_bending	lumbar_rotation	arm_flex_r	arm_add_r	arm_rot_r	elbow_flex_r	pro_sup_r	wrist_flex_r	wrist_dev_r	arm_flex_l	arm_add_l	arm_rot_l	elbow_flex_l	pro_sup_l	wrist_flex_l	wrist_dev_l
12.27999999999983	-5.966142956145085	-3.772776216472109	25.12113216106427	0	0.9399999999999999	0	35.32939341898356	-10.40778288212029	-9.814040550078635	40.65187333748388	0.7095090368427898	0	0	0	35.32939341898356	-10.40778288212029	-9.814040550078635	40.65187333748388	0.7095090368427898	0	0	0	-6.375276886137004	-2.980934450746966	0.3410334434945098	20.2202207688623	-0.8686290190205873	3.388841704536961	43.83464499940592	132.0313725262601	0	0	62.71822266782638	-13.05357096901273	24.2362131996482	84.97779775739885	87.7766440879571	0	0
12.29999999999983	-5.961697765939888	-3.765544530618435	25.27376897811289	0	0.9399999999999999	0	35.33594348780677	-10.40683969737165	-9.814317034021389	40.65863197785149	0.7096269973701628	0	0	0	35.33594348780677	-10.40683969737165	-9.814317034021389	40.65863197785149	0.7096269973701628	0	0	0	-6.375417676659729	-2.959021605083292	0.2294266953605104	20.23384065914758	-0.8592028185171704	3.370476897807215	43.82049739997598	132.0177636591151	0	0	62.85133123051667	-13.2305647407019	24.17897418524226	83.70984953915681	86.71109349835507	0	0
12.31999999999983	-5.944204595261559	-3.739678927392161	25.53346736519262	0	0.9399999999999999	0	35.34077704006526	-10.40615183453472	-9.81451955091595	40.66366693656033	0.7097148739773339	0	0	0	35.34077704006526	-10.40615183453472	-9.81451955091595	40.66366693656033	0.7097148739773339	0	0	0	-6.362157814714691	-2.912067164879514	0.001490202698274864	20.21605159777576	-0.9201338403001093	3.389277311787362	43.81853278329563	132.0245024499941	0	0	62.99290523375907	-13.46608616596792	24.09531832285895	81.11993655579212	84.70419286180352	0	0
12.33999999999983	-5.939357806844053	-3.7235419875849	25.70651010720054	0	0.9399999999999999	0	35.34625515865898	-10.40537544725034	-9.814748490414456	40.66939063853479	0.7098147714221911	0	0	0	35.34625515865898	-10.40537544725034	-9.814748490414456	40.66939063853479	0.7098147714221911	0	0	0	-6.35980422855439	-2.879206644895064	-0.1578358947682356	20.20077757737424	-0.9197806688132284	3.407630506350138	43.79312940298879	131.9866620528074	0	0	63.12464999142838	-13.70753542123012	24.14650428278219	78.56112776742607	81.96282046654146	0	0
12.35999999999983	-5.939080948641956	-3.695698269780795	25.89228893597654	0	0.9399999999999999	0	35.35196722374297	-10.40456593526727	-9.814987251999964	40.67535279340825	0.7099188306552469	0	0	0	35.35196722374297	-10.40456593526727	-9.814987251999964	40.67535279340825	0.7099188306552469	0	0	0	-6.358306704074424	-2.830407270694745	-0.3357967021290708	20.21892297472673	-0.9375451959606311	3.422031199921591	43.74433405879219	131.9775001034908	0	0	63.27479046213104	-13.90400131208892	24.26319253589506	75.88552415664695	80.06645286038946	0	0
12.37999999999982	-5.926665809737109	-3.680938008207923	25.95956483862678	0	0.9399999999999999	0	35.3552140384033	-10.40411370437639	-9.815121470803049	40.67879122814518	0.7099788426625212	0	0	0	35.3552140384033	-10.40411370437639	-9.815121470803049	40.67879122814518	0.7099788426625212	0	0	0	-6.348071286330357	-2.804885908999157	-0.4589877550389486	20.21535605964476	-0.9307305913540987	3.483897046312884	43.69543557044545	131.9881622040808	0	0	63.33302257819044	-14.08134267957249	24.28579815254227	74.58495635187421	79.41390058063853	0	0
12.39999999999982	-5.962113490200355	-3.709228411285069	26.03746455232053	0	0.9399999999999999	0	35.36201208765304	-10.40314510219141	-9.815406732195891	40.68583939441727	0.7101018563701972	0	0	0	35.36201208765304	-10.40314510219141	-9.815406732195891	40.68583939441727	0.7101018563701972	0	0	0	-6.401289467354486	-2.793527034013707	-0.577822967818017	20.34875227943581	-0.8944471459983627	3.523402445153369	43.68721834188901	131.9185935321592	0	0	63.55543044757203	-14.25475579831502	24.65158303199356	70.63141691312136	77.43336006994474	0	0
12.41999999999982	-5.95805331223133	-3.698795787823767	26.05996866870523	0	0.9399999999999999	0	35.36610757588244	-10.40255963837946	-9.815579000929427	40.69006780175601	0.7101756560003737	0	0	0	35.36610757588244	-10.40255963837946	-9.815579000929427	40.69006780175601	0.7101756560003737	0	0	0	-6.397982187428448	-2.773732235440167	-0.6572080642964778	20.34316857025485	-0.8791078743420973	3.588159369911845	43.68875024837852	131.9171987200918	0	0	63.43290628186704	-14.67787254349239	24.86898519060423	69.68946463057404	76.59780120363202	0	0
12.43999999999982	-5.963580021967405	-3.70284383734695	26.11134873405124	0	0.9399999999999999	0	35.37189602076851	-10.40173238474281	-9.815822485638058	40.69603988619399	0.7102798885370235	0	0	0	35.37189602076851	-10.40173238474281	-9.815822485638058	40.69603988619399	0.7102798885370235	0	0	0	-6.407568680139073	-2.767501250119353	-0.6958210452473187	20.34150796012388	-0.8601087812279397	3.47469605730199	43.69822851346979	131.9726095770224	0	0	63.38778179529727	-14.93028248794792	25.29220783534266	67.4710880390308	75.96970981516604	0	0
12.45999999999982	-5.966209749900144	-3.707612444340625	26.24246035308397	0	0.9399999999999999	0	35.37800074690644	-10.40086193781894	-9.816078951634834	40.70234400927671	0.710389916241268	0	0	0	35.37800074690644	-10.40086193781894	-9.816078951634834	40.70234400927671	0.710389916241268	0	0	0	-6.422748092877361	-2.744879774403086	-0.8601119997177042	20.36079552937855	-0.861349170966217	3.494751977426832	43.7282183128367	131.9095951680198	0	0	63.28557728709261	-15.20126064740752	25.78934945964107	63.23917050687785	75.64742038807094	0	0
12.47999999999982	-5.973292335223137	-3.711921967355855	26.23672667662352	0	0.9399999999999999	0	35.38354535784855	-10.40007215577834	-9.816311783920266	40.70806890690674	0.7104898345542516	0	0	0	35.38354535784855	-10.40007215577834	-9.816311783920266	40.70806890690674	0.7104898345542516	0	0	0	-6.434480314543055	-2.736197461876042	-0.9149015069556382	20.36518797270355	-0.8308992110203545	3.45331440660751	43.73029031888112	131.9584593947321	0	0	63.10272412068273	-15.35064736525466	25.88754953199036	61.56021315393358	75.69941541418046	0	0
12.49999999999982	-5.958245982145726	-3.709424950484554	26.28506692758189	0	0.9399999999999999	0	35.38696496166948	-10.39958822771102	-9.816454799848355	40.71161736643322	0.7105517668563625	0	0	0	35.38696496166948	-10.39958822771102	-9.816454799848355	40.71161736643322	0.7105517668563625	0	0	0	-6.423438470090451	-2.731657868748971	-0.9741101637859969	20.33260040004387	-0.8087236381780512	3.456777056125242	43.71465466641687	131.9383608658927	0	0	62.81928698094464	-15.40830755229037	25.95083689816548	60.03710566683616	75.68945435708234	0	0
12.51999999999982	-5.981846427947853	-3.717216949443968	26.28339709399559	0	0.9399999999999999	0	35.3898346780193	-10.39918077824985	-9.81657509235923	40.71458440400613	0.7106035514310401	0	0	0	35.3898346780193	-10.39918077824985	-9.81657509235923	40.71458440400613	0.7106035514310401	0	0	0	-6.448736136127019	-2.726221750926305	-0.9826921699739332	20.34345525814358	-0.8299214610491875	3.458304940012036	43.74552173382845	131.9511402181007	0	0	62.59159012919886	-15.38379266772243	25.9403716244074	59.4465492079544	75.6562462387899	0	0
12.53999999999982	-5.991580630818528	-3.732571214255971	26.32943545560871	0	0.9399999999999999	0	35.39405685309388	-10.39858328583092	-9.816751720208025	40.7189599093339	0.7106799184054483	0	0	0	35.39405685309388	-10.39858328583092	-9.816751720208025	40.7189599093339	0.7106799184054483	0	0	0	-6.466812681053173	-2.729193838796658	-1.022269228783395	20.36621472452304	-0.8274174804378893	3.434348449631137	43.76352727078307	131.9555409596887	0	0	62.34672633261322	-15.26399512747567	25.96369287201489	57.46260706543434	75.26206471570386	0	0
12.55999999999982	-5.983003678505225	-3.7497962767997	26.39237491708096	0	0.9399999999999999	0	35.39853019426855	-10.3979483878374	-9.816939246854659	40.72357944283961	0.7107605444750292	0	0	0	35.39853019426855	-10.3979483878374	-9.816939246854659	40.72357944283961	0.7107605444750292	0	0	0	-6.46668849727426	-2.747856975838324	-1.023731597130825	20.36212895659929	-0.8092114715003431	3.371972398963342	43.75603415823362	131.9739517041955	0	0	62.09296821274907	-15.10652716917443	25.9441727039025	56.49188538253014	74.91902634333501	0	0
12.57999999999982	-5.968762415584957	-3.761425408754558	26.42789988972218	0	0.9399999999999999	0	35.40201341926333	-10.39745460728263	-9.817085177765049	40.72717746362653	0.7108233417843161	0	0	0	35.40201341926333	-10.39745460728263	-9.817085177765049	40.72717746362653	0.7108233417843161	0	0	0	-6.459097231503356	-2.763953114299901	-1.026522035261954	20.30338153915303	-0.798730282934055	3.375215903171952	43.7894271272219	131.9400774800727	0	0	61.73807488611482	-14.93191344753503	25.8395571842775	55.80358202079081	74.63785381813796	0	0
12.59999999999982	-5.962883179016832	-3.78198754579711	26.46002365547178	0	0.9399999999999999	0	35.40454118048437	-10.39709706561377	-9.817190937089791	40.72979250269389	0.7108689828261098	0	0	0	35.40454118048437	-10.39709706561377	-9.817190937089791	40.72979250269389	0.7108689828261098	0	0	0	-6.461168555299868	-2.788723855520461	-0.9995451033719012	20.29024693800255	-0.7966943860593537	3.333507952382063	43.80694874722331	131.9389828009078	0	0	61.41074464159272	-14.71805563595836	25.7529436918542	55.5922395356366	74.61299449268215	0	0
12.61999999999982	-5.964502007719845	-3.80037145822435	26.48811652091436	0	0.9399999999999999	0	35.40707768179784	-10.39674380870495	-9.817296010879733	40.73245156053094	0.7109153921403673	0	0	0	35.40707768179784	-10.39674380870495	-9.817296010879733	40.73245156053094	0.7109153921403673	0	0	0	-6.471694586528014	-2.801851127319037	-1.016012395685687	20.27914928946276	-0.7753818665791394	3.334227198999243	43.83217182027401	131.9322317821766	0	0	61.40201487053832	-14.70559362441447	25.8269094288131	54.93941164595292	74.06515377857555	0	0
